<svg xmlns="http://www.w3.org/2000/svg" xmlns:vectornator="http://vectornator.io" xml:space="preserve" stroke-linecap="round" stroke-linejoin="round" stroke-miterlimit="10" clip-rule="evenodd" viewBox="0 0 1800 1800"><g vectornator:layerName="Layer 1"><path vectornator:layerName="Curve 1" fill="#3395ff" d="M867.579 680.364h8.328"/><path vectornator:layerName="Curve 7" fill="#05183e" d="M865.872 1413.36c.288-74.98-60.411-135.91-135.385-135.91H250.065c-128.535 0-232.336 104.95-230.924 233.48 1.39 126.55 104.37 228.4 230.924 228.4h514.939c55.079 0 99.788-44.54 99.999-99.62l.869-226.35Z"/><path vectornator:layerName="Curve 2" fill="#05183e" d="M1782.04 1638.83c.76-199.36-160.64-361.38-360-361.38H1167.1c-128.54 0-232.341 104.95-230.929 233.48 1.391 126.55 104.369 228.4 230.929 228.4h514.94c55.07 0 99.78-44.54 99.99-99.62l.01-.88Z"/><path vectornator:layerName="Curve 8" fill="#3395ff" d="M864.049 780.464c.241-62.761-50.571-113.767-113.333-113.767H250.392c-128.534 0-232.333 104.943-230.925 233.469 1.387 126.544 104.368 228.404 230.925 228.404h512.707c55.079 0 99.789-44.53 99.999-99.61l.951-248.496Z"/><path vectornator:layerName="Curve 4" fill="#ffae33" stroke="#ffae33" stroke-linecap="butt" stroke-width="10" d="M1778.75 1028.07c.76-199.355-160.64-361.373-360-361.373h-399.7c-47.614 0-86.068 38.878-85.547 86.493l1.513 138.013C936.457 1022.72 1043.48 1128.57 1175 1128.57h503.75c55.08 0 99.78-44.53 100-99.61v-.89Z"/><path vectornator:layerName="Curve 6" fill="#3395ff" d="M888.141 1142.24h-20.878"/><path vectornator:layerName="Rectangle 11" fill="#3395ff" d="M1103.06 1142.24H888.141"/><path vectornator:layerName="Rectangle 13" fill="#05183e" d="M34.899 420.669c0-198.822 161.177-360 360-360h925.611c127.68 0 231.19 103.507 231.19 231.189 0 127.682-103.51 231.189-231.19 231.189H134.899c-55.229 0-100-44.772-100-100v-2.378Z"/></g></svg>